# xmcd
#
# Track frame offsets:
# 150
# 59532
# 105417
# 167478
# 209891
# 277503
# 321304
#
# Disc length: 4799 seconds
#
#
# Revision: 0
# Processed by: cddbd v1.5.2PL0 Copyright (c) Steve Scherf et al.
# Submitted via: FreeRIP 2.96 
#
DISCID=5f12bd07
DTITLE=Fred Vagas - Der vierzehnte Stein CD2v5
DYEAR=2005
DGENRE=Hörbuch
TTITLE0=09 Bernard Vétilleux
TTITLE1=10 Als Adamsberg
TTITLE2=11 Den Grossteil seines Samstags
TTITLE3=12 Am Dienstag, den 14. Oktober
TTITLE4=13 Adamsberg hatte nicht die Absicht
TTITLE5=14 Nach einem organisierten Gruppenabendessen
TTITLE6=15 Es ist seltsam
EXTD=gelesen von Gesine Cukrowski
EXTT0=
EXTT1=
EXTT2=
EXTT3=
EXTT4=
EXTT5=
EXTT6=
PLAYORDER=
